<svg width="419" height="218" viewBox="0 0 419 218" fill="none" xmlns="http://www.w3.org/2000/svg">
<g filter="url(#filter0_b_139_9374)">
<mask id="path-1-inside-1_139_9374" fill="white">
<path fill-rule="evenodd" clip-rule="evenodd" d="M250.453 35.3552C250.907 37.9624 253.063 40.0355 255.709 40.0355H388.5C405.069 40.0355 418.5 53.467 418.5 70.0355V187.036C418.5 203.604 405.069 217.036 388.5 217.036H30.5C13.9314 217.036 0.5 203.604 0.5 187.036V70.0355C0.5 53.467 13.9315 40.0355 30.5 40.0355H163.291C165.937 40.0355 168.093 37.9624 168.547 35.3552C171.949 15.8183 188.99 0.964844 209.5 0.964844C230.01 0.964844 247.051 15.8183 250.453 35.3552Z"/>
</mask>
<path fill-rule="evenodd" clip-rule="evenodd" d="M250.453 35.3552C250.907 37.9624 253.063 40.0355 255.709 40.0355H388.5C405.069 40.0355 418.5 53.467 418.5 70.0355V187.036C418.5 203.604 405.069 217.036 388.5 217.036H30.5C13.9314 217.036 0.5 203.604 0.5 187.036V70.0355C0.5 53.467 13.9315 40.0355 30.5 40.0355H163.291C165.937 40.0355 168.093 37.9624 168.547 35.3552C171.949 15.8183 188.99 0.964844 209.5 0.964844C230.01 0.964844 247.051 15.8183 250.453 35.3552Z" fill="#313131" fill-opacity="0.67"/>
<path d="M168.547 35.3552L167.562 35.1836L168.547 35.3552ZM250.453 35.3552L249.468 35.5267L250.453 35.3552ZM255.709 41.0355H388.5V39.0355H255.709V41.0355ZM388.5 41.0355C404.516 41.0355 417.5 54.0193 417.5 70.0355H419.5C419.5 52.9147 405.621 39.0355 388.5 39.0355V41.0355ZM417.5 70.0355V187.036H419.5V70.0355H417.5ZM417.5 187.036C417.5 203.052 404.516 216.036 388.5 216.036V218.036C405.621 218.036 419.5 204.156 419.5 187.036H417.5ZM388.5 216.036H30.5V218.036H388.5V216.036ZM30.5 216.036C14.4837 216.036 1.5 203.052 1.5 187.036H-0.5C-0.5 204.156 13.3792 218.036 30.5 218.036V216.036ZM1.5 187.036V70.0355H-0.5V187.036H1.5ZM1.5 70.0355C1.5 54.0193 14.4837 41.0355 30.5 41.0355V39.0355C13.3792 39.0355 -0.5 52.9147 -0.5 70.0355H1.5ZM30.5 41.0355H163.291V39.0355H30.5V41.0355ZM169.532 35.5267C172.852 16.4605 189.484 1.96484 209.5 1.96484V-0.0351562C188.495 -0.0351562 171.046 15.1761 167.562 35.1836L169.532 35.5267ZM209.5 1.96484C229.516 1.96484 246.148 16.4605 249.468 35.5267L251.438 35.1836C247.954 15.1761 230.505 -0.0351562 209.5 -0.0351562V1.96484ZM163.291 41.0355C166.491 41.0355 169.007 38.543 169.532 35.5267L167.562 35.1836C167.179 37.3818 165.384 39.0355 163.291 39.0355V41.0355ZM255.709 39.0355C253.616 39.0355 251.821 37.3818 251.438 35.1836L249.468 35.5267C249.993 38.543 252.509 41.0355 255.709 41.0355V39.0355Z" fill="white" fill-opacity="0.15" mask="url(#path-1-inside-1_139_9374)"/>
</g>
<defs>
<filter id="filter0_b_139_9374" x="-49.5" y="-49.0352" width="518" height="316.071" filterUnits="userSpaceOnUse" color-interpolation-filters="sRGB">
<feFlood flood-opacity="0" result="BackgroundImageFix"/>
<feGaussianBlur in="BackgroundImageFix" stdDeviation="25"/>
<feComposite in2="SourceAlpha" operator="in" result="effect1_backgroundBlur_139_9374"/>
<feBlend mode="normal" in="SourceGraphic" in2="effect1_backgroundBlur_139_9374" result="shape"/>
</filter>
</defs>
</svg>
