<svg width="16" height="16" viewBox="0 0 16 16" fill="none" xmlns="http://www.w3.org/2000/svg">
<path d="M14.0669 5.91668L8.46693 11.5333C8.40026 11.6 8.32804 11.6471 8.25026 11.6747C8.17248 11.7027 8.08915 11.7167 8.00026 11.7167C7.91137 11.7167 7.82804 11.7027 7.75026 11.6747C7.67248 11.6471 7.60026 11.6 7.53359 11.5333L1.91693 5.91668C1.76137 5.76112 1.68359 5.56668 1.68359 5.33334C1.68359 5.10001 1.76693 4.90001 1.93359 4.73334C2.10026 4.56668 2.2947 4.48334 2.51693 4.48334C2.73915 4.48334 2.93359 4.56668 3.10026 4.73334L8.00026 9.63334L12.9003 4.73334C13.0558 4.57779 13.2474 4.50001 13.4749 4.50001C13.7029 4.50001 13.9003 4.58334 14.0669 4.75001C14.2336 4.91668 14.3169 5.11112 14.3169 5.33334C14.3169 5.55556 14.2336 5.75001 14.0669 5.91668Z" fill="#5DDFA2"/>
</svg>
