<svg width="20" height="20" viewBox="0 0 20 20" fill="none" xmlns="http://www.w3.org/2000/svg">
<path d="M19.8508 9.3175C19.1192 7.7175 16.25 2.5 10 2.5C3.75002 2.5 0.880848 7.7175 0.149181 9.3175C0.0509633 9.53192 0.00012207 9.76499 0.00012207 10.0008C0.00012207 10.2367 0.0509633 10.4697 0.149181 10.6842C0.880848 12.2825 3.75002 17.5 10 17.5C16.25 17.5 19.1192 12.2825 19.8508 10.6825C19.9489 10.4683 19.9996 10.2355 19.9996 10C19.9996 9.76446 19.9489 9.53168 19.8508 9.3175ZM10 15.8333C4.74418 15.8333 2.29168 11.3617 1.66668 10.0092C2.29168 8.63833 4.74418 4.16667 10 4.16667C15.2433 4.16667 17.6967 8.61917 18.3333 10C17.6967 11.3808 15.2433 15.8333 10 15.8333Z" fill="black"/>
<path d="M10 5.83334C9.17595 5.83334 8.37037 6.07771 7.68517 6.53555C6.99996 6.99339 6.46591 7.64414 6.15054 8.4055C5.83518 9.16686 5.75267 10.0046 5.91344 10.8129C6.07421 11.6211 6.47105 12.3636 7.05376 12.9463C7.63648 13.529 8.37891 13.9258 9.18717 14.0866C9.99542 14.2474 10.8332 14.1649 11.5946 13.8495C12.3559 13.5341 13.0067 13.0001 13.4645 12.3149C13.9223 11.6297 14.1667 10.8241 14.1667 10C14.1654 8.89535 13.726 7.83631 12.9449 7.05519C12.1637 6.27408 11.1047 5.83467 10 5.83334ZM10 12.5C9.50559 12.5 9.02224 12.3534 8.61112 12.0787C8.19999 11.804 7.87956 11.4135 7.69034 10.9567C7.50112 10.4999 7.45162 9.99724 7.54808 9.51228C7.64454 9.02733 7.88264 8.58187 8.23228 8.23224C8.58191 7.88261 9.02736 7.64451 9.51232 7.54805C9.99727 7.45158 10.4999 7.50109 10.9568 7.69031C11.4136 7.87953 11.804 8.19996 12.0787 8.61108C12.3534 9.02221 12.5 9.50556 12.5 10C12.5 10.6631 12.2367 11.2989 11.7678 11.7678C11.299 12.2366 10.6631 12.5 10 12.5Z" fill="black"/>
</svg>
