<svg width="21" height="21" viewBox="0 0 21 21" fill="none" xmlns="http://www.w3.org/2000/svg">
<path d="M3.5 18.375C3.01875 18.375 2.60692 18.2038 2.2645 17.8614C1.9215 17.5184 1.75 17.1062 1.75 16.625V7C1.75 6.51875 1.9215 6.10692 2.2645 5.7645C2.60692 5.4215 3.01875 5.25 3.5 5.25H7V3.5C7 3.01875 7.1715 2.60662 7.5145 2.26362C7.85692 1.92121 8.26875 1.75 8.75 1.75H12.25C12.7312 1.75 13.1434 1.92121 13.4864 2.26362C13.8288 2.60662 14 3.01875 14 3.5V5.25H17.5C17.9813 5.25 18.3934 5.4215 18.7364 5.7645C19.0788 6.10692 19.25 6.51875 19.25 7V16.625C19.25 17.1062 19.0788 17.5184 18.7364 17.8614C18.3934 18.2038 17.9813 18.375 17.5 18.375H3.5ZM3.5 16.625H17.5V7H3.5V16.625ZM8.75 5.25H12.25V3.5H8.75V5.25Z" fill="white"/>
</svg>
