<svg width="25" height="25" viewBox="0 0 25 25" fill="none" xmlns="http://www.w3.org/2000/svg">
<path d="M15.357 17.582C17.2202 17.3614 19.0509 16.9217 20.811 16.272C19.3204 14.6208 18.4967 12.4745 18.5 10.25V9.55V9.5C18.5 7.9087 17.8679 6.38258 16.7427 5.25736C15.6174 4.13214 14.0913 3.5 12.5 3.5C10.9087 3.5 9.3826 4.13214 8.25738 5.25736C7.13216 6.38258 6.50002 7.9087 6.50002 9.5V10.25C6.50304 12.4746 5.67901 14.621 4.18802 16.272C5.92102 16.912 7.74802 17.357 9.64302 17.582M15.357 17.582C13.459 17.8071 11.541 17.8071 9.64302 17.582M15.357 17.582C15.5011 18.0319 15.537 18.5094 15.4616 18.9757C15.3863 19.442 15.2019 19.884 14.9234 20.2656C14.645 20.6472 14.2803 20.9576 13.8592 21.1716C13.4381 21.3856 12.9724 21.4972 12.5 21.4972C12.0276 21.4972 11.5619 21.3856 11.1408 21.1716C10.7197 20.9576 10.3551 20.6472 10.0766 20.2656C9.79819 19.884 9.61379 19.442 9.53844 18.9757C9.46309 18.5094 9.49892 18.0319 9.64302 17.582M3.62402 8C3.90599 6.32497 4.65782 4.76444 5.79202 3.5M19.208 3.5C20.3422 4.76444 21.0941 6.32497 21.376 8" stroke="white" stroke-width="2" stroke-linecap="round" stroke-linejoin="round"/>
</svg>
