<svg width="20" height="21" viewBox="0 0 20 21" fill="none" xmlns="http://www.w3.org/2000/svg">
<path d="M17.5 14.2498C17.5 14.5665 17.325 14.8415 17.0583 14.9832L10.475 18.6832C10.3417 18.7832 10.175 18.8332 10 18.8332C9.825 18.8332 9.65834 18.7832 9.525 18.6832L2.94167 14.9832C2.80807 14.913 2.69626 14.8075 2.6184 14.6782C2.54053 14.5489 2.49958 14.4008 2.5 14.2498V6.74984C2.5 6.43317 2.675 6.15817 2.94167 6.0165L9.525 2.3165C9.65834 2.2165 9.825 2.1665 10 2.1665C10.175 2.1665 10.3417 2.2165 10.475 2.3165L17.0583 6.0165C17.325 6.15817 17.5 6.43317 17.5 6.74984V14.2498ZM10 3.95817L8.425 4.84984L13.3333 7.67484L14.9667 6.74984L10 3.95817ZM5.03334 6.74984L10 9.5415L11.6333 8.62484L6.73334 5.7915L5.03334 6.74984ZM4.16667 13.7582L9.16667 16.5748V10.9832L4.16667 8.17484V13.7582ZM15.8333 13.7582V8.17484L10.8333 10.9832V16.5748L15.8333 13.7582Z" fill="#9E9E9E"/>
</svg>
