<svg width="21" height="21" viewBox="0 0 21 21" fill="none" xmlns="http://www.w3.org/2000/svg">
<path d="M7 2.625C6.53587 2.625 6.09075 2.80937 5.76256 3.13756C5.43437 3.46575 5.25 3.91087 5.25 4.375V7.875C5.25 8.33913 5.06563 8.78425 4.73744 9.11244C4.40925 9.44063 3.96413 9.625 3.5 9.625H2.625V11.375H3.5C3.96413 11.375 4.40925 11.5594 4.73744 11.8876C5.06563 12.2158 5.25 12.6609 5.25 13.125V16.625C5.25 17.0891 5.43437 17.5342 5.76256 17.8624C6.09075 18.1906 6.53587 18.375 7 18.375H8.75V16.625H7V12.25C7 11.7859 6.81563 11.3408 6.48744 11.0126C6.15925 10.6844 5.71413 10.5 5.25 10.5C5.71413 10.5 6.15925 10.3156 6.48744 9.98744C6.81563 9.65925 7 9.21413 7 8.75V4.375H8.75V2.625M14 2.625C14.4641 2.625 14.9092 2.80937 15.2374 3.13756C15.5656 3.46575 15.75 3.91087 15.75 4.375V7.875C15.75 8.33913 15.9344 8.78425 16.2626 9.11244C16.5908 9.44063 17.0359 9.625 17.5 9.625H18.375V11.375H17.5C17.0359 11.375 16.5908 11.5594 16.2626 11.8876C15.9344 12.2158 15.75 12.6609 15.75 13.125V16.625C15.75 17.0891 15.5656 17.5342 15.2374 17.8624C14.9092 18.1906 14.4641 18.375 14 18.375H12.25V16.625H14V12.25C14 11.7859 14.1844 11.3408 14.5126 11.0126C14.8408 10.6844 15.2859 10.5 15.75 10.5C15.2859 10.5 14.8408 10.3156 14.5126 9.98744C14.1844 9.65925 14 9.21413 14 8.75V4.375H12.25V2.625H14Z" fill="white"/>
</svg>
