<svg width="22" height="21" viewBox="0 0 22 21" fill="none" xmlns="http://www.w3.org/2000/svg">
<path d="M13 17C16.771 17 18.657 17 19.828 15.828C21 14.657 21 12.771 21 9C21 5.229 21 3.343 19.828 2.172C18.657 1 16.771 1 13 1H9C5.229 1 3.343 1 2.172 2.172C1 3.343 1 5.229 1 9C1 12.771 1 14.657 2.172 15.828C2.825 16.482 3.7 16.771 5 16.898" stroke="white" stroke-width="2" stroke-linecap="round" stroke-linejoin="round"/>
<path d="M9 6.484C9.5 5.494 10 5 11 5C12.246 5 13 5.989 13 6.978C13 7.967 12.5 8.011 11 9V10M11 12.5V13M13 17C11.764 17 10.402 17.5 9.159 18.145C7.161 19.182 6.162 19.701 5.67 19.37C5.178 19.04 5.271 18.015 5.458 15.966L5.5 15.5" stroke="white" stroke-width="2" stroke-linecap="round"/>
</svg>
