<svg width="21" height="21" viewBox="0 0 21 21" fill="none" xmlns="http://www.w3.org/2000/svg">
<path d="M2.625 17.5V7.6125C2.37708 7.45208 2.16942 7.24792 2.002 7C1.834 6.75208 1.75 6.46042 1.75 6.125V3.5C1.75 3.01875 1.9215 2.60662 2.2645 2.26362C2.60692 1.92121 3.01875 1.75 3.5 1.75H17.5C17.9813 1.75 18.3934 1.92121 18.7364 2.26362C19.0788 2.60662 19.25 3.01875 19.25 3.5V6.125C19.25 6.46042 19.166 6.75208 18.998 7C18.8306 7.24792 18.6229 7.45208 18.375 7.6125V17.5C18.375 17.9813 18.2038 18.3934 17.8614 18.7364C17.5184 19.0788 17.1062 19.25 16.625 19.25H4.375C3.89375 19.25 3.48162 19.0788 3.13862 18.7364C2.79621 18.3934 2.625 17.9813 2.625 17.5ZM4.375 7.875V17.5H16.625V7.875H4.375ZM17.5 6.125V3.5H3.5V6.125H17.5ZM7.875 12.25H13.125V10.5H7.875V12.25Z" fill="white"/>
</svg>
