<svg width="24" height="24" viewBox="0 0 24 24" fill="none" xmlns="http://www.w3.org/2000/svg">
<path d="M6.3445 5.29329C6.43748 5.38616 6.51124 5.49645 6.56156 5.61785C6.61188 5.73924 6.63779 5.86937 6.63779 6.00079C6.63779 6.1322 6.61188 6.26233 6.56156 6.38373C6.51124 6.50513 6.43748 6.61541 6.3445 6.70829C4.84394 8.2091 4.00095 10.2445 4.00095 12.3668C4.00095 14.4891 4.84394 16.5245 6.3445 18.0253C6.43734 18.1182 6.51098 18.2285 6.5612 18.3499C6.61142 18.4712 6.63725 18.6013 6.6372 18.7326C6.63716 18.864 6.61124 18.994 6.56093 19.1154C6.51062 19.2367 6.43691 19.3469 6.344 19.4398C6.25109 19.5326 6.1408 19.6063 6.01943 19.6565C5.89807 19.7067 5.76799 19.7325 5.63665 19.7325C5.5053 19.7324 5.37524 19.7065 5.25391 19.6562C5.13258 19.6059 5.02234 19.5322 4.9295 19.4393C1.0235 15.5333 1.0235 9.19929 4.9295 5.29329C5.02237 5.20031 5.13266 5.12655 5.25406 5.07623C5.37546 5.0259 5.50558 5 5.637 5C5.76842 5 5.89854 5.0259 6.01994 5.07623C6.14134 5.12655 6.25163 5.20031 6.3445 5.29329ZM19.0755 5.29329C22.9815 9.20029 22.9815 15.5333 19.0755 19.4393C18.8869 19.6214 18.6343 19.7222 18.3721 19.72C18.1099 19.7177 17.8591 19.6125 17.6737 19.4271C17.4883 19.2417 17.3831 18.9909 17.3808 18.7287C17.3785 18.4665 17.4793 18.2139 17.6615 18.0253C19.1621 16.5245 20.005 14.4891 20.005 12.3668C20.005 10.2445 19.1621 8.2091 17.6615 6.70829C17.4739 6.52078 17.3684 6.26641 17.3683 6.00114C17.3682 5.73587 17.4735 5.48143 17.661 5.29379C17.8485 5.10615 18.1029 5.00068 18.3681 5.00058C18.6334 5.00049 18.8879 5.10578 19.0755 5.29329ZM9.3115 8.16729C9.49897 8.35481 9.60429 8.60912 9.60429 8.87429C9.60429 9.13945 9.49897 9.39376 9.3115 9.58129C8.94745 9.9453 8.65867 10.3775 8.46165 10.8531C8.26462 11.3287 8.16322 11.8385 8.16322 12.3533C8.16322 12.8681 8.26462 13.3779 8.46165 13.8535C8.65867 14.3291 8.94745 14.7613 9.3115 15.1253C9.40701 15.2175 9.48319 15.3279 9.5356 15.4499C9.58801 15.5719 9.6156 15.7031 9.61675 15.8359C9.6179 15.9687 9.5926 16.1003 9.54232 16.2232C9.49204 16.3461 9.41779 16.4578 9.3239 16.5517C9.23 16.6456 9.11835 16.7198 8.99545 16.7701C8.87256 16.8204 8.74088 16.8457 8.6081 16.8445C8.47532 16.8434 8.3441 16.8158 8.2221 16.7634C8.10009 16.711 7.98975 16.6348 7.8975 16.5393C6.78733 15.4291 6.16364 13.9233 6.16364 12.3533C6.16364 10.7832 6.78733 9.2775 7.8975 8.16729C8.08503 7.97982 8.33934 7.8745 8.6045 7.8745C8.86966 7.8745 9.12397 7.97982 9.3115 8.16729ZM16.2705 8.16729C17.3807 9.2775 18.0044 10.7832 18.0044 12.3533C18.0044 13.9233 17.3807 15.4291 16.2705 16.5393C16.1777 16.6322 16.0674 16.7059 15.9461 16.7562C15.8248 16.8065 15.6947 16.8324 15.5634 16.8325C15.432 16.8325 15.3019 16.8067 15.1806 16.7565C15.0592 16.7063 14.9489 16.6326 14.856 16.5398C14.7631 16.4469 14.6894 16.3367 14.6391 16.2154C14.5888 16.094 14.5628 15.964 14.5628 15.8326C14.5628 15.7013 14.5886 15.5712 14.6388 15.4499C14.689 15.3285 14.7627 15.2182 14.8555 15.1253C15.2195 14.7613 15.5083 14.3291 15.7054 13.8535C15.9024 13.3779 16.0038 12.8681 16.0038 12.3533C16.0038 11.8385 15.9024 11.3287 15.7054 10.8531C15.5083 10.3775 15.2195 9.9453 14.8555 9.58129C14.668 9.39365 14.5627 9.1392 14.5628 8.87393C14.5629 8.60866 14.6684 8.35429 14.856 8.16679C15.0436 7.97928 15.2981 7.87399 15.5634 7.87408C15.8286 7.87418 16.083 7.97965 16.2705 8.16729ZM12.0835 10.9373C12.2805 10.9373 12.4755 10.9761 12.6575 11.0515C12.8395 11.1268 13.0049 11.2373 13.1442 11.3766C13.2834 11.5159 13.3939 11.6813 13.4693 11.8633C13.5447 12.0452 13.5835 12.2403 13.5835 12.4373C13.5835 12.6343 13.5447 12.8293 13.4693 13.0113C13.3939 13.1933 13.2834 13.3587 13.1442 13.4979C13.0049 13.6372 12.8395 13.7477 12.6575 13.8231C12.4755 13.8985 12.2805 13.9373 12.0835 13.9373C11.6857 13.9373 11.3041 13.7793 11.0228 13.4979C10.7415 13.2166 10.5835 12.8351 10.5835 12.4373C10.5835 12.0395 10.7415 11.6579 11.0228 11.3766C11.3041 11.0953 11.6857 10.9373 12.0835 10.9373Z" fill="white"/>
</svg>
