<svg width="269" height="59" viewBox="0 0 269 59" fill="none" xmlns="http://www.w3.org/2000/svg">
<path d="M269 56.2558H-7.15256e-06" stroke="#666666" stroke-miterlimit="10"/>
<path d="M31.5932 55.5116C31.5932 46.4009 39.2625 39.0465 48.7634 39.0465C58.2642 39.0465 65.9336 46.4009 65.9336 55.5116H31.5932Z" fill="black"/>
<path d="M203.066 55.5116C203.066 46.4009 210.736 39.0465 220.237 39.0465C229.737 39.0465 237.407 46.4009 237.407 55.5116H203.066Z" fill="black"/>
<path d="M177.654 55.5116C179.143 53.3712 179.944 51.066 179.944 48.6512C179.944 36.5219 159.454 26.6977 134.157 26.6977C108.859 26.6977 88.3694 36.5219 88.3694 48.6512C88.3694 51.066 89.1706 53.3712 90.6587 55.5116H74.7477C74.347 53.2614 74.0036 51.0112 74.0036 48.6512C74.0036 22.9107 100.904 2 134.099 2C167.295 2 194.195 22.9107 194.195 48.6512C194.195 50.9563 193.966 53.2614 193.566 55.5116H177.597H177.654Z" fill="black"/>
<path d="M156.363 52.7674C153.202 52.7674 150.64 50.3102 150.64 47.279C150.64 44.2479 153.202 41.7906 156.363 41.7906C159.524 41.7906 162.087 44.2479 162.087 47.279C162.087 50.3102 159.524 52.7674 156.363 52.7674Z" stroke="#77F9C3" stroke-width="2" stroke-miterlimit="10"/>
<path d="M116.299 52.7674C113.139 52.7674 110.576 50.3102 110.576 47.279C110.576 44.2479 113.139 41.7906 116.299 41.7906C119.46 41.7906 122.023 44.2479 122.023 47.279C122.023 50.3102 119.46 52.7674 116.299 52.7674Z" stroke="#77F9C3" stroke-width="2" stroke-miterlimit="10"/>
</svg>
