<svg width="171" height="152" viewBox="0 0 171 152" fill="none" xmlns="http://www.w3.org/2000/svg">
<circle cx="92.9784" cy="75.3134" r="71.103" fill="#434343"/>
<path d="M104.025 58.5385L170.716 77.3592L163.761 151.415L83.9772 131.367L104.025 58.5385Z" fill="#858585"/>
<path d="M170.307 76.95L100.343 58.9476C96.9335 63.8574 88.1505 76.5409 80.2949 87.997C72.4393 99.4531 58.7465 113.5 52.8821 119.092L134.711 143.232C136.212 142.413 142.567 136.44 155.987 119.092C169.407 101.744 171.125 83.7692 170.307 76.95Z" fill="#858585" stroke="#434343" stroke-width="0.818293"/>
<circle cx="106.48" cy="78.1775" r="3.27317" fill="#C4C4C4"/>
<circle cx="96.6608" cy="95.3616" r="3.27317" fill="#C4C4C4"/>
<circle cx="86.8412" cy="110.909" r="3.27317" fill="#C4C4C4"/>
<circle cx="40.7164" cy="41.018" r="29.8586" transform="rotate(25.8347 40.7164 41.018)" fill="#434343" stroke="#858585" stroke-width="0.818293"/>
<rect width="16.3659" height="2.45488" transform="matrix(1 0 0 -1 31.3061 49.61)" fill="#858585"/>
<circle cx="23.5323" cy="36.1082" r="4.50061" fill="#858585"/>
<circle cx="55.4457" cy="36.1082" r="4.50061" fill="#858585"/>
<rect x="105.024" y="98.1864" width="39.2781" height="1.63659" rx="0.818293" transform="rotate(15.5 105.024 98.1864)" fill="#C4C4C4"/>
<rect x="96.4571" y="114.769" width="35.5522" height="1.63659" rx="0.818293" transform="rotate(15.5 96.4571 114.769)" fill="#C4C4C4"/>
<rect x="115.806" y="80.6696" width="39.2781" height="1.63659" rx="0.818293" transform="rotate(14.5 115.806 80.6696)" fill="#C4C4C4"/>
</svg>
