<svg width="20" height="20" viewBox="0 0 20 20" fill="none" xmlns="http://www.w3.org/2000/svg">
<g clip-path="url(#clip0_85_14034)">
<path d="M12.8359 13.8438C13.4144 13.2798 13.8116 12.5562 13.9767 11.7653C14.1419 10.9745 14.0675 10.1524 13.7631 9.4041C13.4586 8.65577 12.938 8.0152 12.2677 7.56424C11.5974 7.11328 10.8079 6.87241 10 6.87241C9.19213 6.87241 8.40259 7.11328 7.7323 7.56424C7.062 8.0152 6.54137 8.65577 6.23695 9.4041C5.93253 10.1524 5.85814 10.9745 6.02329 11.7653C6.18843 12.5562 6.58561 13.2798 7.16407 13.8438C6.07415 14.4313 5.19677 15.3469 4.65625 16.4609C4.54644 16.6847 4.53001 16.9429 4.6106 17.1788C4.69118 17.4147 4.86216 17.6089 5.08594 17.7188C5.30972 17.8286 5.56795 17.845 5.80384 17.7644C6.03972 17.6838 6.23394 17.5128 6.34375 17.2891C6.67641 16.6022 7.19581 16.023 7.84246 15.6176C8.4891 15.2123 9.23684 14.9974 10 14.9974C10.7632 14.9974 11.5109 15.2123 12.1576 15.6176C12.8042 16.023 13.3236 16.6022 13.6563 17.2891C13.7338 17.4466 13.854 17.5791 14.0031 17.6717C14.1523 17.7642 14.3245 17.813 14.5 17.8125C14.6406 17.8114 14.7793 17.7794 14.9063 17.7188C15.0179 17.6653 15.118 17.5903 15.2005 17.498C15.283 17.4057 15.3465 17.298 15.3871 17.181C15.4278 17.0641 15.4449 16.9402 15.4375 16.8166C15.43 16.693 15.3982 16.5722 15.3438 16.4609C14.8032 15.3469 13.9259 14.4313 12.8359 13.8438ZM7.8125 10.9375C7.8125 10.5049 7.9408 10.0819 8.18116 9.72219C8.42153 9.36246 8.76317 9.08208 9.16288 8.91651C9.5626 8.75095 10.0024 8.70763 10.4268 8.79203C10.8511 8.87644 11.2409 9.08478 11.5468 9.3907C11.8527 9.69663 12.0611 10.0864 12.1455 10.5107C12.2299 10.9351 12.1866 11.3749 12.021 11.7746C11.8554 12.1743 11.575 12.516 11.2153 12.7563C10.8556 12.9967 10.4327 13.125 10 13.125C9.42048 13.1229 8.86527 12.8918 8.45548 12.482C8.04569 12.0722 7.81456 11.517 7.8125 10.9375ZM19.625 11.6875C19.4261 11.8367 19.1761 11.9007 18.9299 11.8656C18.6838 11.8304 18.4617 11.6989 18.3125 11.5C18.0188 11.1045 17.6492 10.7716 17.2253 10.5208C16.8014 10.2699 16.3317 10.1061 15.8438 10.0391C15.6586 10.0113 15.4859 9.92881 15.3481 9.80211C15.2103 9.6754 15.1135 9.51031 15.0703 9.32813C15.0538 9.29299 15.0408 9.25637 15.0313 9.21875C14.9996 9.09972 14.9919 8.97559 15.0086 8.85357C15.0253 8.73154 15.0661 8.61405 15.1287 8.50793C15.1912 8.40181 15.2741 8.30916 15.3728 8.23538C15.4714 8.16159 15.5837 8.10814 15.7031 8.07813C15.9569 8.01163 16.1899 7.88231 16.3805 7.70207C16.5712 7.52184 16.7134 7.2965 16.794 7.04684C16.8746 6.79717 16.8911 6.53123 16.8419 6.27353C16.7927 6.01583 16.6794 5.77467 16.5124 5.57229C16.3454 5.36991 16.1302 5.21284 15.8866 5.11554C15.6429 5.01825 15.3787 4.98388 15.1182 5.0156C14.8578 5.04731 14.6096 5.1441 14.3964 5.29702C14.1832 5.44995 14.0119 5.65409 13.8984 5.89063C13.8519 6.01109 13.781 6.12064 13.6901 6.21241C13.5993 6.30418 13.4904 6.37619 13.3704 6.42392C13.2505 6.47166 13.1219 6.49408 12.9928 6.4898C12.8638 6.48552 12.737 6.45461 12.6204 6.39903C12.5038 6.34345 12.4 6.26438 12.3154 6.16679C12.2309 6.0692 12.1674 5.95518 12.1289 5.8319C12.0905 5.70862 12.0779 5.57872 12.092 5.45035C12.1061 5.32199 12.1466 5.19792 12.2109 5.08594C12.4201 4.64414 12.7212 4.25204 13.0939 3.93581C13.4667 3.61958 13.9026 3.38648 14.3726 3.25208C14.8426 3.11768 15.3358 3.08506 15.8194 3.15641C16.303 3.22775 16.7658 3.40141 17.177 3.6658C17.5881 3.9302 17.9382 4.27924 18.2037 4.68964C18.4693 5.10004 18.6443 5.56236 18.717 6.04575C18.7897 6.52914 18.7585 7.02247 18.6254 7.49284C18.4923 7.96321 18.2605 8.39978 17.9453 8.77344C18.6796 9.16103 19.3176 9.70831 19.8125 10.375C19.8864 10.4735 19.9401 10.5856 19.9707 10.7048C20.0012 10.8241 20.008 10.9482 19.9906 11.0701C19.9732 11.192 19.9319 11.3092 19.8692 11.4152C19.8065 11.5211 19.7235 11.6136 19.625 11.6875ZM4.15625 10.0391C3.66827 10.1061 3.19858 10.2699 2.77467 10.5208C2.35076 10.7716 1.98116 11.1045 1.6875 11.5C1.59936 11.6156 1.48595 11.7094 1.35596 11.7744C1.22597 11.8394 1.08283 11.8738 0.937504 11.875C0.734838 11.8739 0.5378 11.8082 0.375004 11.6875C0.176091 11.5383 0.0445893 11.3162 0.00942618 11.0701C-0.0257369 10.8239 0.0383196 10.5739 0.187504 10.375C0.68238 9.70831 1.32042 9.16103 2.05469 8.77344C1.73952 8.39978 1.50766 7.96321 1.3746 7.49284C1.24153 7.02247 1.21031 6.52914 1.28303 6.04575C1.35575 5.56236 1.53072 5.10004 1.79628 4.68964C2.06184 4.27924 2.41188 3.9302 2.82303 3.6658C3.23419 3.40141 3.697 3.22775 4.18059 3.15641C4.66419 3.08506 5.15743 3.11768 5.62742 3.25208C6.0974 3.38648 6.53332 3.61958 6.90608 3.93581C7.27884 4.25204 7.57986 4.64414 7.78907 5.08594C7.85338 5.19792 7.89386 5.32199 7.90797 5.45035C7.92209 5.57872 7.90953 5.70862 7.87109 5.8319C7.83264 5.95518 7.76914 6.0692 7.68457 6.16679C7.6 6.26438 7.49617 6.34345 7.37961 6.39903C7.26304 6.45461 7.13625 6.48552 7.00718 6.4898C6.87812 6.49408 6.74956 6.47166 6.62956 6.42392C6.50957 6.37619 6.40073 6.30418 6.30987 6.21241C6.21902 6.12064 6.1481 6.01109 6.10157 5.89063C5.98806 5.65409 5.81682 5.44995 5.60364 5.29702C5.39045 5.1441 5.1422 5.04731 4.88176 5.0156C4.62133 4.98388 4.3571 5.01825 4.11345 5.11554C3.8698 5.21284 3.65456 5.36991 3.4876 5.57229C3.32064 5.77467 3.20733 6.01583 3.15811 6.27353C3.1089 6.53123 3.12536 6.79717 3.20599 7.04684C3.28662 7.2965 3.42882 7.52184 3.61947 7.70207C3.81012 7.88231 4.04309 8.01163 4.29688 8.07813C4.41633 8.10814 4.52863 8.16159 4.62725 8.23538C4.72587 8.30916 4.80884 8.40181 4.87135 8.50793C4.93386 8.61405 4.97466 8.73154 4.99138 8.85357C5.00811 8.97559 5.00041 9.09972 4.96875 9.21875C4.95924 9.25637 4.94616 9.29299 4.92969 9.32813C4.88651 9.51031 4.78976 9.6754 4.65191 9.80211C4.51406 9.92881 4.34143 10.0113 4.15625 10.0391Z" fill="white"/>
</g>
<defs>
<clipPath id="clip0_85_14034">
<rect width="20" height="20" fill="white"/>
</clipPath>
</defs>
</svg>
