<svg width="18" height="18" viewBox="0 0 18 18" fill="none" xmlns="http://www.w3.org/2000/svg">
<path d="M6.11213 2.592C5.44045 3.05757 4.89171 3.6791 4.51296 4.4033C4.1342 5.12749 3.93674 5.93274 3.9375 6.75C3.9375 8.54775 4.8735 10.1272 6.28875 11.0272C6.8715 11.3962 7.33388 12.0656 7.3035 12.8722V12.8812L7.119 16.6354C7.11548 16.7473 7.08969 16.8575 7.04314 16.9594C6.9966 17.0613 6.93023 17.1529 6.8479 17.2289C6.76558 17.3048 6.66895 17.3637 6.56365 17.4019C6.45835 17.4401 6.34649 17.457 6.2346 17.4516C6.12271 17.4461 6.01302 17.4184 5.91194 17.3701C5.81086 17.3218 5.72041 17.2539 5.64586 17.1703C5.57131 17.0867 5.51416 16.989 5.47774 16.8831C5.44133 16.7772 5.42637 16.665 5.43375 16.5532L5.61713 12.807C5.61938 12.7114 5.56088 12.564 5.38425 12.4515C4.42346 11.8425 3.63228 11.0004 3.0843 10.0036C2.53631 9.00676 2.24931 7.88753 2.25 6.75C2.24949 5.66293 2.51184 4.59186 3.01468 3.62809C3.51753 2.66432 4.24596 1.83643 5.13788 1.215C5.41054 1.01875 5.73613 0.909446 6.07198 0.901416C6.40783 0.893387 6.73827 0.987002 7.02 1.17C7.53975 1.503 7.875 2.10037 7.875 2.77087V5.94337C7.875 6.03562 7.92113 6.12337 7.99875 6.17512L8.8425 6.74887C8.88901 6.78031 8.94386 6.79711 9 6.79711C9.05614 6.79711 9.11099 6.78031 9.1575 6.74887L10.0013 6.17512C10.0394 6.14945 10.0707 6.11477 10.0922 6.07416C10.1138 6.03354 10.1251 5.98824 10.125 5.94225V2.77087C10.125 2.10037 10.4603 1.503 10.98 1.17C11.2617 0.987002 11.5922 0.893387 11.928 0.901416C12.2639 0.909446 12.5895 1.01875 12.8621 1.215C13.754 1.83643 14.4825 2.66432 14.9853 3.62809C15.4882 4.59186 15.7505 5.66293 15.75 6.75C15.7507 7.88753 15.4637 9.00676 14.9157 10.0036C14.3677 11.0004 13.5765 11.8425 12.6158 12.4515C12.4391 12.564 12.3806 12.7102 12.3829 12.8059L12.5663 16.5521C12.5752 16.7011 12.5445 16.8498 12.4774 16.9831C12.4103 17.1164 12.3091 17.2296 12.1841 17.3112C12.0592 17.3927 11.9148 17.4398 11.7658 17.4476C11.6167 17.4553 11.4683 17.4235 11.3355 17.3554C11.2027 17.2864 11.0906 17.1834 11.0108 17.0569C10.9309 16.9304 10.8861 16.7849 10.881 16.6354L10.6965 12.8722C10.6661 12.0656 11.1285 11.3962 11.7113 11.0272C12.4323 10.5706 13.026 9.93896 13.4371 9.19108C13.8482 8.44319 14.0634 7.60343 14.0625 6.75C14.0633 5.93274 13.8658 5.12749 13.487 4.4033C13.1083 3.6791 12.5596 3.05757 11.8879 2.592C11.8609 2.61112 11.8125 2.66737 11.8125 2.772V5.94225C11.8125 6.26357 11.7339 6.58003 11.5835 6.86398C11.4331 7.14793 11.2155 7.39075 10.9496 7.57125L10.1059 8.145C9.77962 8.36651 9.39435 8.48494 9 8.48494C8.60565 8.48494 8.22039 8.36651 7.89413 8.145L7.05038 7.57125C6.78453 7.39075 6.56691 7.14793 6.4165 6.86398C6.26609 6.58003 6.18747 6.26357 6.1875 5.94225V2.77087C6.1875 2.66737 6.13913 2.61112 6.11213 2.592Z" fill="white"/>
</svg>
